HIERARCHY
ROOT pelvis
{
  OFFSET 0 100 0
  CHANNELS 6 Xposition Yposition Zposition Zrotation Xrotation Yrotation
  JOINT pelvis_right_femur
  {
    OFFSET -10.78128 -3.44521 -0.5502486
    CHANNELS 3 Zrotation Xrotation Yrotation
    JOINT right_femur_tibia
    {
      OFFSET -0.8047443 -44.0398 -0.1307829
      CHANNELS 3 Zrotation Xrotation Yrotation
      JOINT right_tibia_foot
      {
        OFFSET 3.006224 -47.83518 -5
        CHANNELS 3 Zrotation Xrotation Yrotation
        End Site
        {
          OFFSET 0 -5 15
        }
      }
    }
  }
  JOINT pelvis_left_femur
  {
    OFFSET 10.78128 -3.44521 -0.5502486
    CHANNELS 3 Zrotation Xrotation Yrotation
    JOINT left_femur_tibia
    {
      OFFSET 0.8047443 -44.0398 -0.1307829
      CHANNELS 3 Zrotation Xrotation Yrotation
      JOINT left_tibia_foot
      {
        OFFSET -4.370144 -48.10324 -4.275266
        CHANNELS 3 Zrotation Xrotation Yrotation
        End Site
        {
          OFFSET 0 -5 15
        }
      }
    }
  }
  JOINT pelvis_spine1
  {
    OFFSET 0 6.468898 -3.129235
    CHANNELS 3 Zrotation Xrotation Yrotation
    JOINT spine1
    {
      OFFSET 0 23.15396 4.99043
      CHANNELS 3 Zrotation Xrotation Yrotation
      JOINT spine2
      {
        OFFSET 0 20.79997 -5.064912
        CHANNELS 3 Zrotation Xrotation Yrotation
        JOINT neck
        {
          OFFSET 0 14.38658 9.616178
          CHANNELS 3 Zrotation Xrotation Yrotation
          End Site
          {
            OFFSET 0 20 0
          }
        }
      }
      JOINT right_manubrium
      {
        OFFSET -5.722621 16.35077 3.967754
        CHANNELS 3 Zrotation Xrotation Yrotation
        JOINT right_clavicle
        {
          OFFSET -13.16364 1.694482 -4.693211
          CHANNELS 3 Zrotation Xrotation Yrotation
          JOINT right_humerus
          {
            OFFSET -28.5034 -0.3100689 -2.792744
            CHANNELS 3 Zrotation Xrotation Yrotation
            JOINT right_radius
            {
              OFFSET -25.15693 0.02248979 -1.271978
              CHANNELS 3 Zrotation Xrotation Yrotation
              End Site
              {
                OFFSET -15 0 0
              }
            }
          }
        }
      }
      JOINT left_manubrium
      {
        OFFSET 5.722621 16.35077 3.967754
        CHANNELS 3 Zrotation Xrotation Yrotation
        JOINT left_clavicle
        {
          OFFSET 13.16364 1.694482 -4.693211
          CHANNELS 3 Zrotation Xrotation Yrotation
          JOINT left_humerus
          {
            OFFSET 29.39168 -1.063119 -2.237045
            CHANNELS 3 Zrotation Xrotation Yrotation
            JOINT left_radius
            {
              OFFSET 24.59957 -0.9528479 0.9047498
              CHANNELS 3 Zrotation Xrotation Yrotation
              End Site
              {
                OFFSET 15 -0 -0
              }
            }
          }
        }
      }
    }
  }
}
MOTION
Frames: 15
Frame Time: 0.0416666666667
0 103.5113 0 0.7734899 -1.223659 0.2108891 3.275685 -17.46075 7.522282 -0 37.37833 -0 -5.887098 -13.49705 -2.992635 -7.057017 7.530846 -21.57504 -0 4.755805 -0 7.327004 -18.28923 25.12083 -1.798601 -2.770955 5.109408 3.182379 10.42038 -7.389276 0.3321765 20.94977 7.489158 3.881577 -28.32766 8.788391 5.152811 -21.63278 12.64481 84.86019 36.79096 -16.53252 -0 0 15.69196 -9.740883 9.492107 7.574965 5.46479 -20.92627 -1.386983 -96.06597 22.47575 27.74843 0 0 -14.17768 11.62344 16.61762 0.3978274
0.3578795 103.2611 1.506139 0.7440222 -1.122979 0.422685 3.481713 -19.54244 7.624572 -0 37.62546 -0 -5.99836 -12.97361 -3.272157 -7.077842 9.554119 -21.84183 -0 5.91212 -0 7.312218 -18.68621 24.91201 -1.776096 -2.796041 4.985122 3.249107 10.46494 -7.54751 0.3187161 20.92338 7.527346 3.900353 -28.37372 8.810385 5.120097 -21.46159 12.64206 85.32183 36.74437 -17.18914 -0 0 15.18423 -9.67952 9.523256 7.426624 5.535647 -21.20229 -1.479519 -95.65441 22.42464 27.15107 0 0 -14.86159 11.87711 16.60647 0.1095004
0.6350944 102.8559 3.291014 0.5802532 -0.9085922 0.6525911 3.706456 -22.28227 6.927774 -0 34.33705 -0 -6.224222 -11.98342 -3.45229 -6.724559 11.75286 -21.14609 -0 5.772119 -0 6.917548 -19.43529 23.93263 -1.867833 -2.521018 4.690743 3.245949 10.31055 -7.816896 0.3884466 20.91173 7.529374 3.854352 -27.59379 8.697373 5.160167 -20.44553 12.45198 86.05777 36.36258 -18.50001 -0 0 13.95459 -10.14115 9.734353 7.299593 5.613583 -21.44157 -1.751105 -93.97268 22.9379 24.58375 0 0 -16.89477 10.81683 15.65274 1.327396
0.8428302 102.2502 5.371124 0.4049834 -0.690693 0.8938931 3.888269 -24.63572 6.16683 -0 30.59341 -0 -6.461933 -11.14718 -3.554581 -6.354204 13.50978 -20.34802 -0 5.352509 -0 6.50428 -20.09863 22.94886 -1.889433 -2.452781 4.492075 3.305487 10.26622 -8.012757 0.4003823 20.90656 7.568997 3.863011 -27.41847 8.698002 5.16456 -19.98656 12.38439 86.60957 36.25661 -19.37816 -0 0 13.17565 -10.16148 9.782669 7.115876 5.697359 -21.70246 -1.879847 -93.19191 23.07186 23.35193 0 0 -17.97707 10.71761 15.39857 1.44216
0.97989 101.4042 7.903546 0.2131837 -0.570291 1.162246 3.962398 -27.03115 5.121734 -0 26.30602 -0 -6.628869 -9.853214 -3.689692 -5.937777 15.36027 -19.13501 -0 5.045732 -0 5.758185 -20.78139 21.58879 -1.941838 -2.344983 4.258138 3.370191 10.15077 -8.206312 0.4226803 20.9299 7.619339 3.877301 -27.19219 8.710423 5.207134 -19.41036 12.2843 87.14244 36.20324 -20.28357 -0 0 12.30942 -10.12951 9.790267 6.890984 5.789877 -21.91499 -1.987275 -92.3467 23.32634 21.9361 0 0 -19.10085 10.50631 15.10211 1.683794
1.053524 100.3334 10.98428 0.03559928 -0.5857641 1.467178 3.923247 -29.17235 3.958166 -0 22.18546 -0 -6.697196 -8.242938 -3.867957 -5.557227 17.12131 -17.68023 -0 5.189145 -0 4.742649 -21.34236 20.01803 -1.970337 -2.283104 4.059371 3.437632 10.08314 -8.384635 0.4327547 20.94117 7.667734 3.894975 -27.06942 8.730984 5.227632 -18.97316 12.21671 87.64365 36.15542 -21.09125 -0 0 11.56666 -10.06758 9.794717 6.684831 5.875718 -22.1434 -2.082318 -91.67066 23.46177 20.80945 0 0 -20.05007 10.46638 14.92148 1.728964
1.074397 99.0762 14.74437 -0.1165697 -0.805333 1.818318 3.759459 -30.91527 2.66157 -0 18.37927 -0 -6.625916 -6.20212 -4.123206 -5.226275 18.73578 -15.89006 -0 6.15632 -0 3.348524 -21.67996 18.16695 -2.003789 -2.21544 3.865292 3.501138 10.00364 -8.550765 0.4448535 20.95836 7.71495 3.912254 -26.94037 8.752247 5.255203 -18.53626 12.14569 88.11 36.11627 -21.85348 -0 0 10.85094 -10.00058 9.790132 6.48338 5.957747 -22.34619 -2.167097 -91.02047 23.60809 19.70632 0 0 -20.94996 10.40074 14.74055 1.80324
1.059359 97.71792 19.27302 -0.2249832 -1.259479 2.211985 3.537007 -31.95752 1.383543 -0 15.22278 -0 -6.414858 -3.901161 -4.462567 -4.966144 19.9571 -13.85657 -0 8.367573 -0 1.628945 -21.61803 16.16953 -2.029427 -2.157137 3.690814 3.557451 9.941935 -8.705402 0.455222 20.96952 7.755603 3.925992 -26.82112 8.767992 5.273228 -18.14638 12.0843 88.5482 36.05768 -22.55717 -0 0 10.19832 -9.955792 9.795492 6.305774 6.031575 -22.54289 -2.251857 -90.4193 23.71195 18.6968 0 0 -21.78716 10.34891 14.57172 1.861986
1.027513 96.39458 24.60302 -0.2757133 -1.968222 2.624878 3.381583 -31.98803 0.326587 -0 12.96342 -0 -6.088156 -1.581869 -4.888122 -4.760886 20.49818 -11.69717 -0 12.35374 -0 -0.324949 -20.95647 14.2029 -2.052399 -2.097694 3.529325 3.60502 9.887602 -8.850544 0.4668153 20.97749 7.789427 3.934979 -26.68729 8.77585 5.286244 -17.77432 12.02541 88.96147 35.97612 -23.21791 -0 0 9.585646 -9.942203 9.812006 6.149768 6.097895 -22.72805 -2.339246 -89.83196 23.79635 17.71972 0 0 -22.59557 10.27071 14.38836 1.951342
0.9946188 95.29586 30.66297 -0.2592877 -2.91464 3.006657 3.463077 -30.68226 -0.2294989 -0 11.85427 -0 -5.710726 0.351428 -5.373845 -4.560833 20.00873 -9.644201 -0 18.61273 -0 -2.315393 -19.5053 12.56339 -2.064037 -2.041205 3.399289 3.633086 9.863444 -8.980184 0.4796243 20.97185 7.806297 3.932067 -26.52305 8.762698 5.279857 -17.45256 11.97675 89.33481 35.83128 -23.79925 -0 0 9.060171 -10.01358 9.865282 6.047379 6.147352 -22.90353 -2.441373 -89.26513 23.82477 16.82004 0 0 -23.36295 10.14777 14.16981 2.093345
0.9634451 94.64151 37.2498 -0.1819704 -4.035919 3.276861 3.91602 -27.79379 -0.04045665 -0 11.9951 -0 -5.390845 1.404961 -5.856388 -4.289827 18.15395 -7.984267 -0 27.42418 -0 -4.093788 -17.15319 11.58537 -2.059248 -1.98246 3.348578 3.611805 9.888193 -9.055467 0.4979827 20.94406 7.783694 3.902658 -26.28163 8.703725 5.241999 -17.24533 11.94571 89.55775 35.57921 -24.13028 -0 0 8.778092 -10.26665 9.987365 6.074091 6.153179 -23.01389 -2.559568 -88.78494 23.77997 16.14668 0 0 -23.95634 9.881172 13.86982 2.403107
0.9169486 94.61785 44.02726 -0.07682746 -5.19649 3.331124 4.739785 -23.27371 0.9668745 -0 13.15287 -0 -5.272138 1.07771 -6.222028 -3.885784 14.71064 -6.98717 -0 38.37414 -0 -5.405048 -13.97712 11.54634 -2.03771 -1.913403 3.456483 3.49633 9.97146 -8.99815 0.5284224 20.89204 7.690705 3.829388 -25.91498 8.571414 5.167719 -17.26681 11.94151 89.41165 35.20324 -23.88352 -0 0 9.025081 -10.80623 10.19804 6.341222 6.072929 -22.9368 -2.670459 -88.56428 23.67462 16.01601 0 0 -24.06256 9.330387 13.45127 3.044168
0.8260779 95.27042 50.6031 -0.005078309 -6.186778 3.067923 5.743178 -17.44213 2.551201 -0 14.55433 -0 -5.470355 -0.8919103 -6.328138 -3.341681 9.737899 -6.73684 -0 49.77581 -0 -6.076788 -10.36306 12.48633 -2.00969 -1.828389 3.763421 3.267557 10.09099 -8.750699 0.5743569 20.82973 7.518117 3.711082 -25.42688 8.367023 5.07188 -17.58095 11.9639 88.74805 34.74979 -22.84154 -0 0 9.97864 -11.62627 10.46638 6.89192 5.886852 -22.57125 -2.731888 -88.76258 23.56461 16.66387 0 0 -23.41359 8.444038 12.9313 4.076959
0.6798678 96.41508 56.70839 -0.02274034 -6.80369 2.442824 6.60867 -11.04374 4.141948 -0 15.07509 -0 -5.94376 -4.156974 -6.074683 -2.694306 3.734888 -6.960637 -0 58.64822 -0 -6.113193 -7.006853 14.05629 -1.978558 -1.741439 4.205645 2.967419 10.2277 -8.366483 0.6281757 20.76765 7.296808 3.569308 -24.89614 8.127219 4.965201 -18.11604 12.00665 87.73901 34.26108 -21.24609 -0 0 11.43092 -12.5911 10.74223 7.624025 5.632577 -22.0012 -2.741033 -89.30932 23.45206 17.91633 0 0 -22.17878 7.3929 12.38276 5.304508
0.5121 97.68633 62.35436 -0.1267048 -7.00128 1.513931 7.07402 -4.899971 5.12066 -0 14.07554 -0 -6.441767 -7.731398 -5.468159 -1.956685 -2.504501 -7.113597 -0 62.23201 -0 -5.710614 -4.59185 15.65648 -1.933919 -1.674805 4.676904 2.657763 10.39234 -7.961927 0.6781134 20.69957 7.066492 3.426192 -24.39844 7.886177 4.837829 -18.73708 12.06528 86.7245 33.72677 -19.57936 -0 0 12.9831 -13.57876 11.01189 8.392632 5.369007 -21.42526 -2.744507 -89.9571 23.27285 19.34783 0 0 -20.82152 6.410049 11.8646 6.456317
